<svg xmlns="http://www.w3.org/2000/svg" viewBox="0 0 68.57 64.16"><defs><style>.cls-1{fill:#0a2343;}.cls-2{fill:#f05223;}</style></defs><title>Asset 1</title><g id="Layer_2" data-name="Layer 2"><g id="Layer_1-2" data-name="Layer 1"><path class="cls-1" d="M15.64,0H64.17a0,0,0,0,1,0,0V42.66A15.64,15.64,0,0,1,48.53,58.3H0a0,0,0,0,1,0,0V15.64A15.64,15.64,0,0,1,15.64,0Z"/><path class="cls-2" d="M52.93,64.16H4.39V21.5A15.64,15.64,0,0,1,20,5.86H68.57V48.52A15.64,15.64,0,0,1,52.93,64.16Z"/><path class="cls-2" d="M17.73,54.76V22.52A7.27,7.27,0,0,1,25,15.26H55.23v32a7.48,7.48,0,0,1-7.47,7.47Z"/><path class="cls-1" d="M53.73,16.76V35H46.85v2.55h6.88v9.73a6,6,0,0,1-6,6H37.64V43.45H35.08v9.81H19.23V22.52A5.76,5.76,0,0,1,25,16.76H35.08v9.86h2.56V16.76H53.73m3-3H25a8.77,8.77,0,0,0-8.76,8.76V56.26H47.76a9,9,0,0,0,9-9V13.76Z"/></g></g></svg>