<svg xmlns="http://www.w3.org/2000/svg" viewBox="0 0 68.57 64.16"><defs><style>.cls-1{fill:#0a2343;}.cls-2{fill:#f05223;}</style></defs><title>Asset 1</title><g id="Layer_2" data-name="Layer 2"><g id="Layer_1-2" data-name="Layer 1"><path class="cls-1" d="M15.64,0H64.17a0,0,0,0,1,0,0V42.66A15.64,15.64,0,0,1,48.53,58.3H0a0,0,0,0,1,0,0V15.64A15.64,15.64,0,0,1,15.64,0Z"/><path class="cls-2" d="M52.93,64.16H4.39V21.5A15.64,15.64,0,0,1,20,5.86H68.57V48.52A15.64,15.64,0,0,1,52.93,64.16Z"/><path class="cls-2" d="M17.12,54.76v-32a7.47,7.47,0,0,1,7.46-7.46H55.84v32a7.48,7.48,0,0,1-7.47,7.47Z"/><path class="cls-1" d="M54.34,16.76V47.29a6,6,0,0,1-6,6H44.26v-18H41.71v18H31.25v-18H28.69v18H18.62V22.72a6,6,0,0,1,6-6H54.34m3-3H24.58a9,9,0,0,0-9,9V56.26H48.37a9,9,0,0,0,9-9V13.76Z"/></g></g></svg>